<svg xmlns="http://www.w3.org/2000/svg" width="197.681" height="74.643"><g data-name="Group 1"><g data-name="Group 6449" fill="#d3b47a"><path data-name="Path 1" d="M62.581 50.606l-8.98-.106v-1.488a4.474 4.474 0 00-1.343-3.209 4.474 4.474 0 00-3.229-1.3 4.49 4.49 0 00-4.436 4.413v.05a4.475 4.475 0 001.267 3.227 4.474 4.474 0 003.184 1.371l1.431.017v8.756a4.477 4.477 0 001.319 3.185l4.963 4.963 2.211-2.212-4.958-4.953a1.369 1.369 0 01-.4-.974v-8.719l8.943.106a1.368 1.368 0 01.958.4l2.682 2.682-4.665 4.665 2.211 2.211 6.876-6.876-4.893-4.893a4.476 4.476 0 00-3.132-1.319m-12.107-1.59v1.447l-1.4-.017a1.367 1.367 0 01-.973-.419 1.369 1.369 0 01-.387-.989v-.051a1.369 1.369 0 01.4-.946 1.374 1.374 0 01.955-.4 1.363 1.363 0 01.987.4 1.366 1.366 0 01.411.981"/><path data-name="Path 2" d="M64.575 28.853l-6.425 6.275-1.049-1.049a4.47 4.47 0 00-3.218-1.32 4.475 4.475 0 00-3.2 1.368 4.489 4.489 0 00-.016 6.257l.036.036a4.47 4.47 0 003.177 1.386 4.471 4.471 0 003.22-1.281l1.024-1 6.192 6.192a4.477 4.477 0 003.185 1.319h7.017v-3.124h-7.017a1.372 1.372 0 01-.974-.4l-6.165-6.166 6.4-6.249a1.37 1.37 0 01.963-.392h3.792v6.6h3.127V27.58h-6.919a4.48 4.48 0 00-3.148 1.282m-9.685 7.437l1.018 1.013-1 .974a1.365 1.365 0 01-.984.392 1.369 1.369 0 01-.974-.425l-.035-.037a1.371 1.371 0 01-.385-.953 1.373 1.373 0 01.391-.96 1.369 1.369 0 01.978-.418 1.37 1.37 0 01.984.4"/><path data-name="Path 3" d="M50.61 12.062l-.106 8.98H49.02a4.47 4.47 0 00-3.208 1.343 4.471 4.471 0 00-1.3 3.229 4.489 4.489 0 004.413 4.436h.05a4.475 4.475 0 003.227-1.267 4.477 4.477 0 001.372-3.183l.016-1.432h8.756a4.477 4.477 0 003.185-1.319l4.963-4.962-2.212-2.212-4.962 4.962a1.369 1.369 0 01-.974.4h-8.719l.106-8.943a1.368 1.368 0 01.4-.958l2.682-2.682 4.665 4.665 2.212-2.211-6.877-6.876-4.893 4.893a4.48 4.48 0 00-1.312 3.137m-1.59 12.107h1.447l-.016 1.395a1.37 1.37 0 01-.42.973 1.369 1.369 0 01-.989.387h-.051a1.369 1.369 0 01-.946-.4 1.37 1.37 0 01-.4-.955 1.365 1.365 0 01.4-.987 1.366 1.366 0 01.981-.411"/><path data-name="Path 4" d="M28.853 10.067l6.274 6.425-1.048 1.049a4.471 4.471 0 00-1.32 3.219 4.476 4.476 0 001.367 3.2 4.49 4.49 0 006.258.016l.036-.035a4.474 4.474 0 001.39-3.179 4.468 4.468 0 00-1.282-3.22l-1-1.024 6.191-6.192a4.473 4.473 0 001.32-3.185V.124H43.91v7.017a1.369 1.369 0 01-.4.974l-6.165 6.165-6.249-6.4a1.368 1.368 0 01-.392-.962V3.124h6.6V-.002h-9.725v6.92a4.479 4.479 0 001.282 3.147m7.437 9.685l1.022-1.023.975 1a1.366 1.366 0 01.392.985 1.365 1.365 0 01-.426.973l-.036.035a1.373 1.373 0 01-.953.385 1.373 1.373 0 01-.96-.391 1.369 1.369 0 01-.418-.978 1.372 1.372 0 01.4-.984"/><path data-name="Path 5" d="M12.061 24.038l8.98.106v1.484a4.474 4.474 0 001.343 3.209 4.474 4.474 0 003.226 1.295 4.488 4.488 0 004.436-4.413v-.05a4.471 4.471 0 00-1.267-3.227 4.47 4.47 0 00-3.183-1.371l-1.432-.017v-8.756a4.474 4.474 0 00-1.315-3.186l-4.962-4.963-2.212 2.212 4.963 4.962a1.372 1.372 0 01.4.974v8.719l-8.943-.106a1.368 1.368 0 01-.958-.4l-2.682-2.682 4.666-4.665-2.212-2.211-6.876 6.876 4.893 4.893a4.479 4.479 0 003.132 1.319m12.107 1.59v-1.447l1.4.017a1.366 1.366 0 01.973.419 1.369 1.369 0 01.387.989v.051a1.369 1.369 0 01-.4.946 1.37 1.37 0 01-.955.4 1.365 1.365 0 01-.987-.4 1.366 1.366 0 01-.411-.981"/><path data-name="Path 6" d="M10.067 45.791l6.425-6.275 1.049 1.049a4.475 4.475 0 003.219 1.32 4.475 4.475 0 003.2-1.368 4.489 4.489 0 00.016-6.257l-.035-.037a4.471 4.471 0 00-3.177-1.385 4.471 4.471 0 00-3.221 1.281l-1.024 1-6.192-6.192a4.472 4.472 0 00-3.185-1.319H.125v3.127h7.017a1.368 1.368 0 01.974.4l6.165 6.166-6.4 6.249a1.367 1.367 0 01-.963.392H3.126v-6.6H0v9.725h6.919a4.482 4.482 0 003.148-1.282m9.685-7.437l-1.023-1.023 1-.975a1.369 1.369 0 01.985-.391 1.368 1.368 0 01.973.425l.035.037a1.372 1.372 0 01.386.953 1.37 1.37 0 01-.392.959 1.361 1.361 0 01-.978.418 1.365 1.365 0 01-.984-.4"/><path data-name="Path 7" d="M24.038 62.582l.106-8.98h1.483a4.474 4.474 0 003.209-1.343 4.474 4.474 0 001.295-3.229 4.488 4.488 0 00-4.413-4.436h-.05a4.475 4.475 0 00-3.227 1.267 4.472 4.472 0 00-1.371 3.184l-.017 1.431h-8.756a4.477 4.477 0 00-3.185 1.319l-4.963 4.962 2.212 2.212 4.962-4.962a1.371 1.371 0 01.974-.4h8.719l-.1 8.943a1.374 1.374 0 01-.4.958l-2.682 2.682-4.665-4.665-2.211 2.211 6.876 6.877 4.893-4.894a4.483 4.483 0 001.32-3.132m1.589-12.107H24.18l.017-1.4a1.366 1.366 0 01.419-.973 1.369 1.369 0 01.989-.387h.051a1.373 1.373 0 01.947.4 1.373 1.373 0 01.4.955 1.365 1.365 0 01-.4.987 1.366 1.366 0 01-.981.411"/><path data-name="Path 8" d="M45.79 64.576l-6.275-6.425 1.049-1.049a4.47 4.47 0 001.32-3.218 4.477 4.477 0 00-1.368-3.2 4.489 4.489 0 00-6.257-.016l-.036.035a4.472 4.472 0 00-1.386 3.178 4.471 4.471 0 001.281 3.22l1 1.024-6.192 6.192a4.478 4.478 0 00-1.316 3.185v7.018h3.127v-7.018a1.365 1.365 0 01.4-.974l6.165-6.165 6.249 6.4a1.37 1.37 0 01.392.963v3.792h-6.6v3.127h9.725v-6.919a4.48 4.48 0 00-1.282-3.148m-7.437-9.685l-1.019 1.019-.975-1a1.364 1.364 0 01-.391-.984 1.369 1.369 0 01.425-.974l.037-.035a1.371 1.371 0 01.953-.385 1.369 1.369 0 01.959.391 1.363 1.363 0 01.418.978 1.365 1.365 0 01-.4.984"/></g><path data-name="Path 9" d="M95.144 35.443v.39h-4.159v-.39a2.281 2.281 0 001.105-.26 1.214 1.214 0 00.585-.52l7.069-17.151h.78l6.758 16.115a.868.868 0 00.325.429.772.772 0 00.4.117 1.528 1.528 0 00.818-.273 4.024 4.024 0 00.689-.533 2.03 2.03 0 01-.285 1.053 2.665 2.665 0 01-.767.818 3.949 3.949 0 01-1.1.533 4.421 4.421 0 01-1.326.2 3.78 3.78 0 01-1.273-.2 2.874 2.874 0 01-.935-.533 3.588 3.588 0 01-.664-.754 4.971 4.971 0 01-.454-.857l-1.326-3.119H95.17l-1.716 4.158a.839.839 0 00-.051.234c0 .243.181.395.546.455a7.239 7.239 0 001.195.091m.286-5.588h5.692l-2.859-6.836z" fill="#fff"/><path data-name="Path 10" d="M127.582 18.812a1.013 1.013 0 00.078-.338q0-.338-.468-.39t-1.559-.052v-.389h4.808v.389a4.91 4.91 0 00-1.39.156 1.017 1.017 0 00-.689.624l-6.368 17.155h-.784l-7.148-16.115a.822.822 0 00-.806-.494 2.115 2.115 0 00-1.429.754 2.076 2.076 0 01.325-1.17 2.647 2.647 0 01.832-.806 4 4 0 011.13-.468 5.128 5.128 0 011.248-.156 3.764 3.764 0 011.274.2 3.059 3.059 0 01.948.532 3.829 3.829 0 01.689.754 4.614 4.614 0 01.468.858l4.6 10.474z" fill="#fff"/><path data-name="Path 11" d="M136.6 35.443v.39h-4.158v-.39a2.274 2.274 0 001.1-.26 1.209 1.209 0 00.585-.52l7.07-17.154h.78l6.758 16.115a.861.861 0 00.324.429.772.772 0 00.4.117 1.534 1.534 0 00.819-.273 4.105 4.105 0 00.689-.533 2.031 2.031 0 01-.286 1.053 2.653 2.653 0 01-.767.818 3.956 3.956 0 01-1.1.533 4.421 4.421 0 01-1.326.2 3.776 3.776 0 01-1.273-.2 2.869 2.869 0 01-.936-.533 3.583 3.583 0 01-.663-.754 5.047 5.047 0 01-.455-.857l-1.326-3.119h-6.209l-1.716 4.158a.814.814 0 00-.052.234q0 .365.546.455a7.247 7.247 0 001.195.091m.286-5.588h5.692l-2.859-6.836z" fill="#fff"/><path data-name="Path 12" d="M158.148 35.443a10.593 10.593 0 001.208-.052.948.948 0 00.625-.273 1.08 1.08 0 00.22-.663q.025-.441.026-1.221V20.912a5.38 5.38 0 00-.767-.728 1.2 1.2 0 00-.714-.286.779.779 0 00-.182.026.46.46 0 00-.208.13 2.545 2.545 0 01.676-1.845 2.545 2.545 0 011.923-.7 3.529 3.529 0 011.3.234 4.759 4.759 0 011.066.572 5.141 5.141 0 01.819.727q.351.39.559.676l7.2 9.487v-8.967q0-.78-.026-1.222a1.073 1.073 0 00-.222-.662.952.952 0 00-.623-.273 10.625 10.625 0 00-1.209-.052v-.39h4.939v.39a10.262 10.262 0 00-1.2.052.942.942 0 00-.611.273 1.132 1.132 0 00-.234.662q-.039.443-.039 1.222v15.985h-.779l-10.732-14.165a.4.4 0 01-.078-.105.434.434 0 00-.078-.1v11.385q0 .78.039 1.221a1.133 1.133 0 00.234.663.93.93 0 00.611.273 10.243 10.243 0 001.195.052v.39h-4.938z" fill="#fff"/><path data-name="Path 13" d="M182.476 17.639h15.2v4.159h-.78q0-.624-.026-1.261a4.345 4.345 0 00-.182-1.131 1.755 1.755 0 00-.507-.8 1.412 1.412 0 00-.974-.312h-2.989v14.945c0 .381.008.715.026 1a1.628 1.628 0 00.169.689.877.877 0 00.468.389 2.471 2.471 0 00.9.13v.39h-7.408v-.39a2.466 2.466 0 00.911-.13.879.879 0 00.454-.389 1.643 1.643 0 00.169-.689q.025-.429.026-1V18.294h-2.989a1.414 1.414 0 00-.974.312 1.755 1.755 0 00-.507.8 4.345 4.345 0 00-.182 1.131q-.027.638-.026 1.261h-.78z" fill="#fff"/><path data-name="Path 14" d="M100.634 49.13a2.889 2.889 0 01-.809.978 3.5 3.5 0 01-1.188.59 5.123 5.123 0 01-1.44.2h-2.309v3.355h-1.073v-9.508h3.559a4.794 4.794 0 011.46.211 3.322 3.322 0 011.127.6 2.578 2.578 0 01.72.95 3.1 3.1 0 01.251 1.27 2.948 2.948 0 01-.3 1.359m-1.476-2.873a3.034 3.034 0 00-1.859-.523h-2.409v4.183h2.356a3.592 3.592 0 001.069-.149 2.467 2.467 0 00.831-.428 1.863 1.863 0 00.531-.666 1.976 1.976 0 00.184-.862 1.818 1.818 0 00-.7-1.555" fill="#fff"/><path data-name="Path 15" d="M118.943 54.251h-1.155l-1.113-2.513H111.5l-1.128 2.513h-1.1l4.333-9.576h1.005zm-4.849-8.313l-2.173 4.849h4.333z" fill="#fff"/><path data-name="Path 16" d="M135.51 54.25l-2.757-3.7h-2.714v3.7h-1.073v-9.508h4.089a4.6 4.6 0 011.419.2 3.205 3.205 0 011.08.577 2.588 2.588 0 01.693.9 2.714 2.714 0 01.244 1.162 2.816 2.816 0 01-.19 1.067 2.438 2.438 0 01-.536.815 3.013 3.013 0 01-.822.578 3.807 3.807 0 01-1.032.326l2.92 3.882zm-.735-8.019a2.862 2.862 0 00-1.8-.5h-2.936v3.872h2.928a3.354 3.354 0 00.98-.137 2.38 2.38 0 00.777-.388 1.794 1.794 0 00.511-.62 1.846 1.846 0 00.183-.832 1.668 1.668 0 00-.64-1.4" fill="#fff"/><path data-name="Path 17" d="M155.032 54.25h-1.345l-3.653-4.6-2.024 2.047v2.553h-1.073v-9.508h1.073v5.678l5.46-5.678h1.386l-4.075 4.156z" fill="#fff"/></g></svg>