<?xml version="1.0" encoding="UTF-8"?>
<svg xmlns="http://www.w3.org/2000/svg" viewBox="0 0 263.5 59.7" xml:space="preserve" fill="#fff">
	<path class="st0" d="M0,0h9.2c7.3,0,13.3,6,13.3,13.3v7.8c0,0.2,0,0.4-0.1,0.5l-0.8,0.2c-0.6,0.2-1.7,0.6-2.2,1
		c-0.3-0.3-0.7-0.6-1.1-0.9c-0.5-0.5-1.2-1.2-1.9-0.8c-0.3,0.2-0.7,0.6-0.9,0.9c-0.3,0.3-0.6,0.6-0.4,1.1c0.1,0.3,1,1.3,1.2,1.6
		c0.2,0.2,0.3,0.4,0.5,0.6c-0.1,0.2-0.8,1.2-1,2.1c-0.1,0.3-0.2,0.6-0.2,0.9c-0.3,0.1-0.6,0-0.9,0.1c-0.4,0-1.5,0-1.8,0.1
		c-0.7,0.2-0.6,0.7-0.6,1.3c0,0.6-0.2,1.5,0.6,1.7c0.4,0.1,1.5,0.1,2,0.2c0.2,0,0.5,0,0.7,0.1c0.2,0.8,0.4,1.6,0.8,2.3
		c0.1,0.1,0.1,0.2,0.2,0.3c0.1,0.1,0.2,0.2,0.2,0.3c-0.3,0.3-0.6,0.7-0.9,1.1c-0.2,0.2-0.8,0.9-0.9,1.1c-0.1,0.3,0,0.6,0.1,0.7
		c0.2,0.3,0.8,0.8,1.1,1.1c0.2,0.2,0.5,0.3,0.8,0.3c0.4-0.1,0.9-0.6,1.2-0.8c0.2-0.2,0.4-0.3,0.6-0.5l0.6-0.5
		c0.1,0.1,0.2,0.1,0.3,0.2c0.6,0.4,1.2,0.6,1.8,0.8c0.2,0,0.2,0.1,0.4,0.1c0.2,0,0.4,0,0.6,0.1l-0.1,14.9v6.5h-3.2V53
		C8.4,51.4,0,42,0,30.8L0,0L0,0z"/>
	<path class="st0" d="M47.6,0h-9.2c-7.3,0-13.3,6-13.3,13.3v7.8c0,0.2,0,0.4,0.1,0.5l0.8,0.2c0.6,0.2,1.7,0.6,2.2,1
		c0.3-0.3,0.7-0.6,1-0.9c0.5-0.5,1.2-1.2,1.9-0.8c0.3,0.2,0.7,0.6,0.9,0.9c0.3,0.3,0.6,0.6,0.4,1.1c-0.1,0.3-1,1.3-1.2,1.6
		c-0.2,0.2-0.3,0.4-0.5,0.6c0.1,0.2,0.8,1.2,1,2.1c0.1,0.3,0.2,0.6,0.2,0.9c0.3,0.1,0.6,0,0.9,0.1c0.4,0,1.5,0,1.8,0.1
		c0.7,0.2,0.6,0.7,0.6,1.3c0,0.6,0.2,1.5-0.6,1.7c-0.4,0.1-1.5,0.1-2,0.2c-0.2,0-0.5,0-0.7,0.1c-0.2,0.8-0.4,1.6-0.8,2.3
		c-0.1,0.1-0.1,0.2-0.2,0.3c-0.1,0.1-0.2,0.2-0.2,0.3c0.3,0.3,0.6,0.7,0.9,1.1c0.2,0.2,0.8,0.9,0.9,1.1c0.1,0.3,0,0.6-0.1,0.7
		c-0.2,0.3-0.8,0.8-1.1,1.1c-0.2,0.2-0.5,0.3-0.8,0.3c-0.4-0.1-0.9-0.6-1.2-0.8c-0.2-0.2-0.4-0.3-0.6-0.5l-0.6-0.5
		c-0.1,0.1-0.2,0.1-0.3,0.2c-0.6,0.4-1.2,0.6-1.8,0.8c-0.2,0-0.2,0.1-0.4,0.1c-0.2,0-0.4,0.1-0.6,0.1l0,5.7h4.2v2.3h-4.2v6.9v6.5
		h3.2V53c10.9-1.5,19.3-11,19.3-22.2L47.6,0L47.6,0z"/>
	<path class="st1" d="M83.4,46.4v-5c-1.2,1.8-2.8,3.2-4.8,4.3c-2,1.1-4.1,1.6-6.3,1.6c-2.3,0-4.3-0.5-6.1-1.5
		c-1.8-1-3.1-2.4-3.9-4.2c-0.8-1.8-1.2-4.3-1.2-7.5V12.8h8.9v15.5c0,4.7,0.2,7.6,0.5,8.7c0.3,1.1,0.9,1.9,1.8,2.5
		c0.9,0.6,2,0.9,3.3,0.9c1.5,0,2.9-0.4,4.1-1.3c1.2-0.8,2-1.9,2.5-3.1c0.4-1.2,0.7-4.3,0.7-9.1V12.8h8.9v33.6L83.4,46.4L83.4,46.4z
			M127.6,46.4h-8.9V29.3c0-3.6-0.2-6-0.6-7c-0.4-1.1-1-1.9-1.9-2.5c-0.9-0.6-1.9-0.9-3.1-0.9c-1.6,0-2.9,0.4-4.2,1.3
		c-1.2,0.8-2.1,2-2.5,3.3c-0.5,1.4-0.7,4-0.7,7.7v15.2H97V12.8h8.2v4.9c2.9-3.8,6.6-5.6,11.1-5.6c2,0,3.8,0.4,5.4,1.1
		c1.6,0.7,2.9,1.6,3.7,2.7c0.8,1.1,1.4,2.3,1.7,3.7c0.3,1.4,0.5,3.4,0.5,6L127.6,46.4L127.6,46.4z M133,8.3V0h8.9v8.2H133z
			M133,46.4V12.8h8.9v33.6H133z M146.8,12.8h8.2v4.6c2.9-3.5,6.4-5.3,10.5-5.3c2.1,0,4,0.4,5.6,1.3c1.6,0.9,2.9,2.2,3.9,4
		c1.5-1.8,3.1-3.1,4.8-4c1.7-0.9,3.5-1.3,5.5-1.3c2.5,0,4.5,0.5,6.3,1.5c1.7,1,3,2.5,3.8,4.4c0.6,1.4,0.9,3.7,0.9,6.9v21.4h-8.9
		V27.2c0-3.3-0.3-5.5-0.9-6.4c-0.8-1.3-2.1-1.9-3.8-1.9c-1.2,0-2.4,0.4-3.5,1.1c-1.1,0.8-1.9,1.9-2.4,3.3c-0.5,1.5-0.7,3.8-0.7,6.9
		v16.1H167V28c0-3.3-0.2-5.4-0.5-6.3c-0.3-0.9-0.8-1.7-1.5-2.1c-0.7-0.5-1.6-0.7-2.7-0.7c-1.4,0-2.6,0.4-3.7,1.1
		c-1.1,0.7-1.9,1.8-2.4,3.2c-0.5,1.4-0.7,3.7-0.7,6.9v16.3h-8.9L146.8,12.8L146.8,12.8z M208,23.2l-8-1.4c0.9-3.3,2.5-5.7,4.7-7.3
		c2.2-1.6,5.5-2.4,9.9-2.4c4,0,6.9,0.5,8.9,1.4c1.9,0.9,3.3,2.1,4.1,3.6c0.8,1.4,1.2,4.1,1.2,7.9l-0.1,10.4c0,2.9,0.1,5.1,0.4,6.5
		c0.3,1.4,0.8,2.9,1.6,4.5h-8.8c-0.2-0.6-0.5-1.4-0.9-2.6c-0.1-0.5-0.2-0.9-0.3-1c-1.5,1.5-3.1,2.6-4.9,3.3
		c-1.7,0.7-3.6,1.1-5.5,1.1c-3.4,0-6.2-0.9-8.1-2.8c-2-1.9-3-4.2-3-7.1c0-1.9,0.5-3.6,1.4-5.1c0.9-1.5,2.2-2.6,3.8-3.4
		c1.6-0.8,4-1.5,7.1-2.1c4.1-0.8,7-1.5,8.6-2.2v-0.9c0-1.7-0.4-3-1.3-3.7c-0.9-0.7-2.4-1.1-4.8-1.1c-1.6,0-2.8,0.3-3.7,0.9
		C209.2,20.5,208.5,21.6,208,23.2L208,23.2z M219.9,30.3c-1.1,0.4-2.9,0.8-5.4,1.4c-2.5,0.5-4.1,1-4.8,1.5c-1.2,0.8-1.7,1.9-1.7,3.1
		c0,1.3,0.5,2.3,1.4,3.2c0.9,0.9,2.1,1.4,3.5,1.4c1.6,0,3.1-0.5,4.6-1.6c1.1-0.8,1.8-1.8,2.1-2.9c0.2-0.8,0.3-2.2,0.3-4.3
		L219.9,30.3L219.9,30.3z M263,22.8l-8.7,1.6c-0.3-1.7-1-3-2-3.9c-1-0.9-2.4-1.3-4.1-1.3c-2.2,0-4,0.8-5.3,2.3c-1.3,1.5-2,4.1-2,7.7
		c0,4,0.7,6.8,2,8.5c1.3,1.7,3.1,2.5,5.4,2.5c1.7,0,3.1-0.5,4.1-1.4c1.1-1,1.8-2.6,2.3-5l8.7,1.5c-0.9,4-2.6,7-5.2,9.1
		c-2.6,2-6,3.1-10.3,3.1c-4.9,0-8.8-1.6-11.7-4.6c-2.9-3.1-4.4-7.4-4.4-12.9c0-5.6,1.5-9.9,4.4-13s6.9-4.6,11.9-4.6
		c4.1,0,7.3,0.9,9.7,2.6C260.2,16.5,262,19.2,263,22.8L263,22.8z"/>
	<polygon class="st0" points="141.9,0 133,0 133,8.3 141.9,8.3 	"/>
</svg>
