<?xml version="1.0" encoding="UTF-8"?>
<svg width="190px" height="17px" viewBox="0 0 190 17" version="1.1" xmlns="http://www.w3.org/2000/svg" xmlns:xlink="http://www.w3.org/1999/xlink">
    <!-- Generator: Sketch 49.3 (51167) - http://www.bohemiancoding.com/sketch -->
    <title>sasgroup_white</title>
    <desc>Created with Sketch.</desc>
    <defs></defs>
    <g id="Welcome" stroke="none" stroke-width="1" fill="none" fill-rule="evenodd">
        <g id="HOMA-PAGE" transform="translate(-135.000000, -76.000000)" fill="#454545" fill-rule="nonzero">
            <g id="Group-6">
                <g id="sasgroup_white" transform="translate(135.000000, 76.000000)">
                    <g id="Group-6">
                        <g id="Group-2">
                            <g id="Group-3">
                                <g id="Group">
                                    <path d="M7.19840129,6.53194258 C6.06447592,6.53194258 5.52113667,6.25566707 5.52113667,5.4498635 C5.52113667,4.64405996 6.06447592,4.39080741 7.19840129,4.39080741 L18.15968,4.39080741 L21.3015982,0.384812581 L7.57637642,0.384812581 C2.780817,0.384812581 0.796447582,2.29571816 0.796447582,5.17358799 C0.796447582,7.82122827 2.66269977,9.59399609 6.72593237,9.59399609 L15.3248665,9.59399609 C16.4824154,9.59399609 17.0021311,9.89329456 17.0021311,10.6990981 C17.0021311,11.5049017 16.4824154,11.8272231 15.3248665,11.8272231 L3.37140313,11.8272231 L0.229484893,15.787172 L14.9468914,15.787172 C19.7660743,15.787172 21.7268202,13.8992894 21.7268202,10.745144 C21.7268202,7.9133201 19.6715805,6.53194258 15.7973354,6.53194258 L7.19840129,6.53194258 Z M48.964653,15.787172 L39.0900526,1.85828194 C38.4049727,0.868294714 37.4600348,0.131560034 35.9717578,0.131560034 C34.4362338,0.131560034 33.4676726,0.960386551 32.8062161,1.85828194 L22.671758,15.787172 L28.4595022,15.787172 L35.877264,5.5649783 L38.7120775,9.64004201 C39.2554167,10.3767767 39.8696263,11.320718 40.3184718,11.873269 C39.5625215,11.8042001 38.4522196,11.8272231 37.5072817,11.8272231 L33.5385429,11.8272231 L30.5856122,15.787172 L48.964653,15.787172 Z M56.7603898,6.53194258 C55.6264644,6.53194258 55.0831251,6.25566707 55.0831251,5.4498635 C55.0831251,4.64405996 55.6264644,4.39080741 56.7603898,4.39080741 L67.7216686,4.39080741 L70.8635866,0.384812581 L57.1383649,0.384812581 C52.3428054,0.384812581 50.3584359,2.29571816 50.3584359,5.17358799 C50.3584359,7.82122827 52.2246882,9.59399609 56.2879208,9.59399609 L64.8868551,9.59399609 C66.044404,9.59399609 66.5641198,9.89329456 66.5641198,10.6990981 C66.5641198,11.5049017 66.044404,11.8272231 64.8868551,11.8272231 L52.9333915,11.8272231 L49.7914732,15.787172 L64.50888,15.787172 C69.3280626,15.787172 71.2888086,13.8992894 71.2888086,10.745144 C71.2888086,7.9133201 69.2335688,6.53194258 65.359324,6.53194258 L56.7603898,6.53194258 Z" id="SAS"></path>
                                    <path d="M80.5019525,9.59399609 L88.6756647,9.59399609 L88.6756647,11.8272231 L82.6989329,11.8272231 C79.9822367,11.8272231 78.0451141,10.3537537 78.0451141,8.14354969 C78.0451141,5.9563686 80.053107,4.39080741 82.6989329,4.39080741 L90.8490214,4.39080741 L94.0145631,0.384812581 L82.6989329,0.384812581 C77.2182935,0.384812581 73.1786843,3.42384313 73.1786843,7.93634306 C73.1786843,12.42582 77.2182935,15.787172 82.6989329,15.787172 L93.5420942,15.787172 L93.5420942,6.16357524 L83.4312598,6.16357524 L80.5019525,9.59399609 Z M115.86625,12.7941874 C114.755948,11.7121083 114.188986,11.1595573 113.645646,10.768167 C116.220602,10.2846849 117.779749,8.28168745 117.779749,5.88729973 C117.779749,1.4899146 113.244048,0.384812581 109.653284,0.384812581 L99.4952026,0.384812581 L96.3060374,4.39080741 L110.054883,4.39080741 C111.755771,4.39080741 112.747955,4.98940435 112.747955,6.1865982 C112.747955,7.26867725 111.566783,7.9133201 110.054883,7.9133201 L96.3060374,7.9133201 L96.3060374,15.787172 L101.196091,15.787172 L101.196091,11.7121083 L108.708346,11.7121083 L112.22824,15.787172 L118.771934,15.787172 L115.86625,12.7941874 Z M131.575841,0.131560034 C139.253461,0.131560034 143.127706,2.57199366 143.127706,8.07448082 C143.127706,13.5999909 139.300708,16.0404246 131.575841,16.0404246 C123.827351,16.0404246 120.023977,13.5999909 120.023977,8.07448082 C120.023977,2.57199366 123.850975,0.131560034 131.575841,0.131560034 Z M131.575841,12.0344297 C136.489518,12.0344297 138.261277,11.3897869 138.261277,8.07448082 C138.261277,4.75917476 136.489518,4.13755486 131.575841,4.13755486 C126.662165,4.13755486 124.890407,4.75917476 124.890407,8.07448082 C124.890407,11.3897869 126.662165,12.0344297 131.575841,12.0344297 Z M166.136942,0.384812581 L161.223266,0.384812581 L161.223266,9.06446803 C161.223266,11.2286262 160.042093,12.0804756 156.285965,12.0804756 C151.254171,12.0804756 150.261987,11.343741 150.261987,9.06446803 L150.261987,0.384812581 L145.395557,0.384812581 L145.395557,9.06446803 C145.395557,13.7151057 148.655592,16.0404246 156.285965,16.0404246 C162.853283,16.0404246 166.136942,13.7151057 166.136942,9.06446803 L166.136942,0.384812581 Z M189.760387,6.16357524 C189.760387,2.75617733 186.925574,0.384812581 182.011897,0.384812581 L172.09005,0.384812581 L168.853638,4.39080741 L182.460743,4.39080741 C183.972643,4.39080741 184.846711,5.05847323 184.846711,6.14055228 C184.846711,7.22263133 183.972643,7.9133201 182.460743,7.9133201 L168.853638,7.9133201 L168.853638,15.787172 L173.720068,15.787172 L173.720068,11.8502461 L181.988274,11.8502461 C186.901951,11.8502461 189.760387,9.57097313 189.760387,6.16357524 Z" id="GROUP"></path>
                                </g>
                            </g>
                        </g>
                    </g>
                </g>
            </g>
        </g>
    </g>
</svg>